<svg xmlns="http://www.w3.org/2000/svg" viewBox="0 0 2500 614" width="200" height="49">
  <path fill="#00b1ea" d="M178.3 45.1C242.4-9.1 339.5-14.5 409.2 32.1c35.1 23.4 59.1 58.2 72.3 98.3 13.2-40.1 37.2-74.9 72.3-98.3C623.5-14.5 720.7-9.1 784.7 45.1c80.7 68.2 95.6 190.8 33.7 278.5L507.2 613.9c-5.5 3.5-12.6-.4-12.6-6.8V471.3c0-2.3 1.2-4.5 3.1-5.8l175.1-115.7c37.7-24.9 50.1-77.3 25.5-114.5-25.1-37.9-76.3-48.5-114.5-23.6l-97.8 63.6c-5.5 3.6-12.6-.3-12.6-6.8V135.7c0-3.1-1.8-5.9-4.6-7.2-9.2-4.2-19.5-4.2-28.7 0-2.8 1.3-4.6 4.2-4.6 7.2v132.8c0 6.5-7.1 10.4-12.6 6.8l-97.8-63.6c-38.2-24.9-89.4-14.3-114.5 23.6-24.6 37.2-12.2 89.6 25.5 114.5L433 465.5c1.9 1.3 3.1 3.5 3.1 5.8v135.8c0 6.4-7.1 10.3-12.6 6.8L112.3 323.6C50.4 235.9 65.3 113.3 146 45.1h32.3z"/>
  <path fill="#2d3277" d="M1064.5 169.5h63.3v284h-63.3v-27.2c-22.8 22.8-54.1 35.9-89.3 35.9-73.2 0-133.9-62.7-133.9-149.2 0-86.6 60.7-149.2 133.9-149.2 35.2 0 66.5 13.1 89.3 35.9v-30.2zm-78.7 232.7c50.8 0 84-38.5 84-89.2s-33.2-89.3-84-89.3-84 38.6-84 89.3 33.3 89.2 84 89.2zm278.4-145c-46.8 0-71.9 31.2-71.9 78v118.3H1129V169.5h63.3v28.5c17.1-22.1 43.5-34.6 72.6-34.6 17.7 0 34.6 4.3 49 13.1l-22.1 57.4c-10.4-6.4-22.8-9.7-37.5-9.7v2zm269.1-87.7h63.3v284h-63.3v-27.2c-22.8 22.8-54.1 35.9-89.3 35.9-73.2 0-133.9-62.7-133.9-149.2 0-86.6 60.7-149.2 133.9-149.2 35.2 0 66.5 13.1 89.3 35.9V169.5zm-78.8 232.7c50.8 0 84-38.5 84-89.2s-33.2-89.3-84-89.3-84 38.6-84 89.3 33.2 89.2 84 89.2zm436.3-89.2c0 86.5-64.6 149.2-149.2 149.2-84.6 0-149.2-62.7-149.2-149.2 0-86.6 64.6-149.2 149.2-149.2 84.6 0 149.2 62.6 149.2 149.2zm-149.2 89.2c50.1 0 86-38.5 86-89.2s-35.9-89.3-86-89.3-86 38.6-86 89.3 35.9 89.2 86 89.2zm347.3-145.2v198.5h-63.3V263.8c0-25.5-16.4-40.5-42.2-40.5-32.6 0-55.4 21.5-55.4 65.9v164.3h-63.3V169.5h63.3v23.5c18.4-19.7 45.5-29.2 73.9-29.2 53.4 0 87 33.2 87 93.2zM2296 169.5h63.3v284H2296v-27.2c-22.8 22.8-54.1 35.9-89.3 35.9-73.2 0-133.9-62.7-133.9-149.2 0-86.6 60.7-149.2 133.9-149.2 35.2 0 66.5 13.1 89.3 35.9v-30.2zm-78.7 232.7c50.8 0 84-38.5 84-89.2s-33.2-89.3-84-89.3-84 38.6-84 89.3 33.2 89.2 84 89.2zm272.3-178.9V169h-63.3v101.6c0 43.5 16.4 63.3 63.3 55.4v54.7c-82 17.1-126.6-16.4-126.6-110.1V169h-46.8v-33.9c38.6-15.1 53.4-46.8 55.4-81.3h54.7V109h63.3v60.5-.2zm-440.4 230.9c-84.6 0-149.2-62.7-149.2-149.2 0-86.6 64.6-149.2 149.2-149.2 50.8 0 96.3 24.8 123.5 63.3l-51.4 33.9c-15.7-23.5-41.5-38.5-72.6-38.5-49.5 0-85.3 38.6-85.3 89.3 0 50.7 35.8 89.2 85.3 89.2 31.2 0 59-15 74.6-39.8l52.1 33.2c-27.8 40.5-73.2 67.8-126 67.8h-.2zm-498.9-3.5H1489l132-274.2h67.3l-138 284z"/>
</svg>
